<svg width="48" height="48" viewBox="0 0 48 48" fill="none" xmlns="http://www.w3.org/2000/svg">
<path d="M18.0933 12.8333C18.0933 13.5993 18.246 14.3578 18.5428 15.0656C18.8396 15.7733 19.2746 16.4163 19.823 16.958C20.3714 17.4997 21.0224 17.9293 21.7389 18.2225C22.4553 18.5156 23.2233 18.6665 23.9988 18.6665C24.7743 18.6665 25.5422 18.5156 26.2587 18.2225C26.9752 17.9293 27.6262 17.4997 28.1746 16.958C28.723 16.4163 29.158 15.7733 29.4548 15.0656C29.7515 14.3578 29.9043 13.5993 29.9043 12.8333C29.9043 12.0672 29.7515 11.3087 29.4548 10.601C29.158 9.89324 28.723 9.25019 28.1746 8.70852C27.6262 8.16685 26.9752 7.73718 26.2587 7.44403C25.5422 7.15088 24.7743 7 23.9988 7C23.2233 7 22.4553 7.15088 21.7389 7.44403C21.0224 7.73718 20.3714 8.16686 19.823 8.70853C19.2746 9.25019 18.8396 9.89325 18.5428 10.601C18.246 11.3087 18.0933 12.0672 18.0933 12.8333L18.0933 12.8333Z" stroke="#060606" stroke-width="2"/>
<path d="M9.11495 28.1976C8.44333 28.5807 7.85466 29.0906 7.38255 29.6983C6.91045 30.3061 6.56415 30.9997 6.36343 31.7396C6.16271 32.4796 6.1115 33.2513 6.21272 34.0108C6.31395 34.7703 6.56563 35.5026 6.95339 36.166C7.34115 36.8294 7.8574 37.4109 8.47266 37.8772C9.08793 38.3436 9.79015 38.6856 10.5392 38.8839C11.2883 39.0822 12.0696 39.1327 12.8385 39.0328C13.6074 38.9328 14.3488 38.6842 15.0205 38.3012C15.6921 37.9181 16.2807 37.4082 16.7529 36.8005C17.225 36.1927 17.5713 35.4991 17.772 34.7592C17.9727 34.0192 18.0239 33.2475 17.9227 32.488C17.8215 31.7285 17.5698 30.9962 17.182 30.3328C16.7943 29.6694 16.278 29.0879 15.6627 28.6216C15.0475 28.1552 14.3453 27.8132 13.5962 27.6149C12.8471 27.4166 12.0658 27.3661 11.2969 27.466C10.528 27.566 9.78657 27.8146 9.11495 28.1976L9.11495 28.1976Z" stroke="#060606" stroke-width="2"/>
<path d="M38.885 28.1976C39.5567 28.5807 40.1453 29.0906 40.6174 29.6983C41.0896 30.3061 41.4359 30.9997 41.6366 31.7396C41.8373 32.4796 41.8885 33.2513 41.7873 34.0108C41.6861 34.7703 41.4344 35.5026 41.0466 36.166C40.6589 36.8294 40.1426 37.4109 39.5273 37.8772C38.9121 38.3436 38.2098 38.6856 37.4608 38.8839C36.7117 39.0822 35.9304 39.1327 35.1615 39.0328C34.3926 38.9328 33.6512 38.6842 32.9795 38.3012C32.3079 37.9181 31.7193 37.4082 31.2471 36.8005C30.775 36.1927 30.4287 35.4991 30.228 34.7592C30.0273 34.0192 29.9761 33.2475 30.0773 32.488C30.1785 31.7285 30.4302 30.9962 30.818 30.3328C31.2057 29.6694 31.722 29.0879 32.3373 28.6216C32.9525 28.1552 33.6547 27.8132 34.4038 27.6149C35.1529 27.4166 35.9342 27.3661 36.7031 27.466C37.472 27.566 38.2134 27.8146 38.8851 28.1976L38.885 28.1976Z" stroke="#060606" stroke-width="2"/>
<path fill-rule="evenodd" clip-rule="evenodd" d="M18.1 12.5624C16.2743 13.3188 14.6154 14.419 13.2158 15.8014C11.8002 17.1997 10.6776 18.8594 9.91179 20.6856C9.14601 22.5117 8.75195 24.4688 8.75195 26.445C8.75195 27.0806 8.79272 27.7142 8.8735 28.3421C8.54831 28.5485 8.24483 28.7857 7.96724 29.05C7.82429 28.1909 7.75195 27.3197 7.75195 26.445C7.75195 24.3357 8.17256 22.2473 8.9896 20.2989C9.80663 18.3505 11.004 16.5806 12.5131 15.09C14.0221 13.5994 15.8133 12.4173 17.7841 11.611C17.945 11.5452 18.1067 11.482 18.2694 11.4214C18.175 11.7948 18.1182 12.177 18.1 12.5624ZM29.8981 12.5616C31.7245 13.318 33.384 14.4185 34.7841 15.8014C36.1997 17.1997 37.3223 18.8594 38.0881 20.6856C38.8539 22.5117 39.248 24.4688 39.248 26.445C39.248 27.081 39.2071 27.7149 39.1263 28.3432C39.4514 28.5497 39.7549 28.787 40.0324 29.0514C40.1755 28.1919 40.248 27.3202 40.248 26.445C40.248 24.3357 39.8273 22.2472 39.0103 20.2989C38.1933 18.3505 36.9959 16.5806 35.4868 15.09C33.9778 13.5994 32.1866 12.4173 30.2158 11.611C30.0543 11.5449 29.8919 11.4815 29.7286 11.4207C29.823 11.794 29.8799 12.1762 29.8981 12.5616ZM34.3059 38.8574C33.9324 38.7517 33.57 38.6097 33.2239 38.4333C32.1854 39.2123 31.0475 39.8583 29.8371 40.3535C27.9867 41.1106 26.0032 41.5004 24 41.5004C21.9967 41.5004 20.0132 41.1106 18.1628 40.3535C16.9521 39.8582 15.814 39.212 14.7753 38.4328C14.4293 38.6092 14.067 38.7512 13.6936 38.857C14.927 39.857 16.305 40.6739 17.7841 41.2791C19.755 42.0854 21.8671 42.5004 24 42.5004C26.1328 42.5004 28.245 42.0854 30.2158 41.2791C31.6948 40.6739 33.0726 39.8572 34.3059 38.8574Z" fill="#060606"/>
</svg>
